<?xml version="1.0" standalone="no"?>
<!DOCTYPE svg PUBLIC "-//W3C//DTD SVG 20010904//EN"
 "http://www.w3.org/TR/2001/REC-SVG-20010904/DTD/svg10.dtd">
<svg version="1.0" xmlns="http://www.w3.org/2000/svg"
 width="300.000000pt" height="300.000000pt" viewBox="0 0 300.000000 300.000000"
 preserveAspectRatio="xMidYMid meet">
<metadata>
Created by potrace 1.14, written by Peter Selinger 2001-2017
</metadata>
<g transform="translate(0.000000,300.000000) scale(0.100000,-0.100000)"
fill="#000000" stroke="none">
<path d="M6 1508 c1 -244 2 -447 3 -453 1 -7 493 -9 1459 -8 801 1 1473 2
1492 2 l35 1 0 450 0 450 -1495 0 -1495 0 1 -442z m859 -10 l0 -417 -412 0
-413 0 0 413 c0 227 2 415 5 418 3 2 188 4 412 4 l408 -1 0 -417z m323 52 c1
0 2 -5 2 -10 0 -7 -13 -8 -34 -5 -20 4 -36 2 -40 -4 -4 -6 -1 -11 6 -12 52 -3
77 -15 74 -36 -4 -23 -45 -38 -80 -29 -40 10 -31 25 13 19 23 -3 41 -1 45 6 4
6 2 12 -3 12 -6 1 -15 3 -21 4 -5 1 -19 3 -30 4 -26 1 -36 26 -19 47 11 14 20
14 87 4z m132 -42 c13 -26 21 -50 17 -55 -5 -4 -12 -1 -17 7 -12 20 -62 19
-77 0 -6 -8 -14 -12 -18 -8 -10 10 45 110 58 106 7 -2 23 -25 37 -50z m86 27
l23 -25 20 26 c11 14 24 23 29 20 13 -8 8 -99 -5 -103 -7 -3 -10 9 -9 32 3 33
2 34 -14 20 -21 -19 -25 -19 -44 1 -15 14 -16 12 -16 -20 0 -42 -17 -49 -22
-8 -4 32 2 82 9 82 3 0 16 -11 29 -25z m172 16 c2 0 -3 -10 -11 -22 -15 -21
-12 -59 4 -59 5 0 9 -4 9 -10 0 -5 -16 -10 -35 -10 -34 0 -47 13 -22 23 18 7
20 57 2 63 -26 10 -16 20 18 18 17 -1 33 -2 35 -3z m103 -8 c26 -32 51 -84 44
-91 -4 -4 -12 0 -18 8 -15 19 -58 20 -81 1 -9 -8 -18 -12 -20 -10 -6 6 46 109
54 109 4 0 13 -8 21 -17z m227 12 c15 -4 22 -13 22 -30 0 -14 -5 -25 -10 -25
-7 0 -7 -7 0 -21 16 -29 3 -38 -16 -11 -19 28 -54 29 -54 2 0 -11 -4 -20 -10
-20 -10 0 -15 92 -5 101 7 7 48 9 73 4z m158 -19 c30 -43 6 -85 -46 -85 -54 0
-79 52 -43 91 21 23 70 20 89 -6z m140 12 c13 -21 14 -82 2 -90 -19 -11 -98
-10 -99 2 0 6 -1 26 -1 45 0 19 1 39 1 44 1 11 90 10 97 -1z m134 2 c0 -6 -16
-10 -35 -10 -24 0 -35 -5 -35 -15 0 -9 9 -13 25 -12 13 1 23 -2 22 -8 -1 -5
-11 -10 -22 -10 -35 0 -27 -20 10 -23 19 -2 35 -7 35 -13 0 -11 -89 -13 -91
-1 -4 20 -5 78 -2 87 4 13 93 18 93 5z m130 -10 c10 -16 2 -40 -13 -40 -5 0
-3 -8 6 -18 25 -27 8 -36 -19 -11 -25 23 -54 20 -54 -6 0 -8 -4 -15 -10 -15
-10 0 -14 92 -5 102 11 11 87 1 95 -12z m133 5 c1 -5 -7 -10 -18 -10 -20 0
-21 -4 -24 -63 -2 -40 -21 -13 -21 30 0 35 -2 40 -20 35 -12 -3 -20 0 -20 8 0
15 99 15 103 0z m115 6 c6 0 12 -6 12 -11 0 -7 -13 -8 -34 -5 -20 4 -36 2 -40
-4 -4 -6 -1 -11 6 -12 30 -1 63 -10 72 -19 26 -26 -29 -58 -79 -46 -35 9 -31
27 5 20 16 -4 37 -3 47 0 15 6 15 8 3 16 -8 6 -28 10 -43 10 -15 0 -30 7 -33
15 -9 23 14 44 44 40 15 -1 33 -3 40 -4z"/>
<path d="M381 1747 c-74 -9 -152 -47 -178 -86 -24 -38 -22 -121 6 -159 33 -47
83 -59 268 -67 128 -6 163 -18 163 -59 0 -50 -62 -77 -180 -77 -73 -1 -148 17
-194 46 -45 28 -93 -6 -75 -53 13 -35 34 -48 109 -72 84 -27 222 -30 302 -6
64 18 121 62 136 104 19 56 -3 135 -47 169 -30 23 -116 42 -221 48 -140 8
-167 13 -174 32 -21 53 35 81 158 81 80 0 99 -3 153 -29 70 -33 113 -28 113
11 0 68 -80 108 -242 123 -18 2 -62 -1 -97 -6z"/>
<path d="M1271 1516 c-11 -13 -10 -17 3 -22 22 -8 30 1 19 21 -9 15 -11 15
-22 1z"/>
<path d="M1656 1514 c-3 -9 -6 -17 -6 -18 0 -1 9 -2 20 -3 17 -2 18 1 10 18
-13 23 -16 24 -24 3z"/>
<path d="M1850 1525 c0 -10 10 -15 30 -15 20 0 30 5 30 15 0 10 -10 15 -30 15
-20 0 -30 -5 -30 -15z"/>
<path d="M1991 1531 c-9 -6 -11 -18 -7 -35 5 -21 12 -26 36 -26 20 0 31 6 35
20 12 38 -29 63 -64 41z"/>
<path d="M2130 1526 c0 -8 11 -13 33 -12 40 2 38 20 -3 23 -20 2 -30 -2 -30
-11z"/>
<path d="M2143 1493 c-26 -10 -12 -24 20 -21 17 2 32 7 32 12 0 10 -34 16 -52
9z"/>
<path d="M2397 1533 c-15 -14 -6 -23 23 -23 20 0 30 5 30 15 0 15 -40 21 -53
8z"/>
</g>
</svg>
