<?xml version="1.0" standalone="no"?>
<!DOCTYPE svg PUBLIC "-//W3C//DTD SVG 20010904//EN"
 "http://www.w3.org/TR/2001/REC-SVG-20010904/DTD/svg10.dtd">
<svg version="1.0" xmlns="http://www.w3.org/2000/svg"
 width="1440.000000pt" height="1440.000000pt" viewBox="0 0 1440.000000 1440.000000"
 preserveAspectRatio="xMidYMid meet">
<metadata>
Created by potrace 1.14, written by Peter Selinger 2001-2017
</metadata>
<g transform="translate(0.000000,1440.000000) scale(0.100000,-0.100000)"
fill="#000000" stroke="none">
<path d="M0 7200 l0 -7200 7200 0 7200 0 0 7200 0 7200 -7200 0 -7200 0 0
-7200z m7463 4690 c166 -24 307 -100 447 -240 151 -150 281 -364 408 -670 l48
-115 174 -6 c262 -10 331 -28 485 -124 93 -59 145 -98 252 -191 72 -64 315
-284 323 -294 3 -3 46 -39 95 -80 50 -41 92 -77 95 -80 20 -21 150 -117 221
-164 183 -118 381 -186 546 -186 244 0 546 168 647 360 33 62 36 75 36 153 0
77 -3 91 -37 158 -97 197 -370 361 -575 347 -110 -8 -177 -67 -192 -167 -8
-55 12 -187 31 -207 9 -8 34 -14 64 -14 88 0 141 -37 155 -110 9 -43 -40 -90
-93 -90 -93 0 -145 35 -157 107 -4 21 -26 76 -49 123 -37 75 -42 93 -42 155 0
58 5 78 27 116 71 121 222 189 421 189 420 0 684 -290 624 -685 -34 -217 -132
-446 -225 -522 -9 -7 -13 -15 -11 -18 3 -2 207 -6 455 -7 396 -3 458 -6 524
-22 88 -21 220 -83 287 -134 50 -37 163 -151 163 -164 0 -3 6 -13 13 -20 38
-42 92 -161 116 -259 21 -86 22 -97 19 -805 l-3 -719 -24 -70 c-91 -270 -289
-461 -554 -534 -77 -21 -84 -21 -1333 -21 l-1255 0 29 -52 c74 -132 101 -296
66 -411 -37 -123 -166 -214 -320 -225 -126 -8 -231 37 -272 118 -26 51 -23 76
14 157 13 28 24 61 24 72 0 27 37 51 80 51 93 0 76 -102 -19 -114 -24 -3 -45
-7 -47 -8 -12 -13 -19 -109 -10 -136 21 -60 48 -77 125 -76 57 0 80 6 137 34
118 58 204 166 204 255 0 88 -80 182 -211 248 -121 61 -261 61 -397 1 -101
-45 -256 -159 -397 -293 -92 -88 -220 -194 -279 -233 -80 -51 -139 -67 -278
-75 -93 -5 -118 -9 -118 -21 0 -24 -115 -255 -160 -322 -66 -97 -150 -174
-238 -217 -75 -37 -78 -38 -191 -37 -193 1 -309 49 -446 188 -91 91 -134 152
-210 299 l-52 102 -103 7 c-144 10 -189 23 -278 80 -42 28 -79 53 -82 57 -3 3
-39 35 -80 71 -41 36 -95 84 -120 108 -84 80 -225 190 -308 240 -120 73 -167
87 -292 86 -101 0 -108 -1 -183 -38 -127 -63 -217 -166 -217 -249 0 -89 87
-199 205 -256 57 -28 82 -35 137 -35 57 -1 70 2 92 23 33 31 43 68 36 134 l-5
51 -54 12 c-58 13 -81 33 -81 71 0 47 84 59 125 18 14 -13 25 -35 25 -49 0
-14 4 -27 9 -31 19 -11 43 -106 37 -141 -15 -77 -110 -139 -230 -151 -163 -15
-324 76 -375 212 -39 104 -22 245 48 390 l39 80 -1347 5 c-1258 5 -1350 7
-1401 23 -30 10 -64 21 -75 24 -36 11 -129 64 -185 106 -144 107 -241 253
-292 437 -18 66 -18 1492 1 1570 33 141 154 327 268 412 32 24 60 46 63 50 3
3 43 24 90 46 159 76 155 75 715 79 274 2 501 6 503 8 3 2 -14 25 -36 50 -50
57 -101 155 -141 270 -105 308 -70 568 97 727 136 129 295 185 503 176 157 -7
262 -44 341 -121 100 -97 106 -232 16 -378 -17 -28 -28 -60 -28 -82 0 -50 -44
-92 -105 -101 -54 -9 -103 0 -127 22 -27 23 -23 79 8 119 31 41 53 51 125 54
30 1 59 4 66 6 17 6 36 137 30 203 -5 63 -19 93 -60 131 -117 111 -429 24
-614 -171 -202 -213 -171 -449 83 -632 270 -195 549 -217 856 -69 132 64 138
68 293 183 138 103 209 162 315 262 357 333 531 467 684 527 70 28 227 48 371
49 l120 0 67 133 c75 147 147 279 157 287 4 3 18 23 31 44 31 51 131 179 184
234 240 254 589 380 919 332z m2724 -7917 c3 -8 -9 -11 -37 -10 -72 3 -83 -38
-78 -273 l3 -135 58 -3 c75 -4 72 -25 -4 -26 l-54 -1 -3 -442 c-2 -385 -4
-443 -17 -443 -13 0 -15 57 -15 445 l0 445 -40 0 c-22 0 -40 5 -40 10 0 6 18
10 40 10 l40 0 0 158 c1 245 15 285 99 280 24 -2 46 -8 48 -15z m-4410 -671
c1 -569 0 -662 -13 -662 -14 0 -17 34 -17 158 1 51 -9 54 -25 8 -7 -19 -33
-57 -58 -85 -57 -63 -125 -91 -223 -91 -137 0 -211 41 -263 147 l-33 67 -3
232 c-4 251 4 313 51 398 62 114 258 157 394 87 53 -27 109 -86 130 -137 10
-24 20 -44 23 -44 3 0 4 129 3 286 -2 157 0 290 3 296 3 5 11 7 17 5 9 -3 12
-174 14 -665z m3161 0 c2 -584 0 -662 -13 -662 -13 0 -15 79 -15 666 0 528 3
665 13 662 9 -4 13 -148 15 -666z m-4578 533 c56 -28 104 -81 132 -144 29 -63
36 -208 15 -282 -33 -113 -135 -246 -283 -370 -195 -163 -324 -304 -324 -356
0 -10 69 -13 310 -13 269 0 310 -2 310 -15 0 -13 -43 -15 -325 -15 l-325 0 0
28 c1 40 31 101 80 157 41 47 74 78 245 230 206 182 284 300 293 440 9 143
-37 251 -132 310 -46 28 -57 30 -140 30 -81 0 -97 -3 -149 -30 -117 -58 -175
-189 -165 -367 5 -78 4 -89 -11 -86 -14 3 -16 21 -16 133 1 121 3 134 28 190
30 64 84 127 129 151 94 49 241 53 328 9z m6123 -283 c76 -4 73 -26 -4 -27
l-54 0 0 -410 c0 -316 3 -415 13 -432 10 -19 22 -23 57 -23 45 0 59 -12 29
-24 -20 -8 -68 -8 -89 0 -36 14 -39 52 -45 474 l-5 415 -37 -1 c-25 0 -38 4
-38 13 0 8 13 13 39 13 l39 0 4 123 c5 176 22 186 28 17 l5 -135 58 -3z
m-4053 16 c38 -16 108 -82 128 -119 6 -13 17 -37 24 -54 12 -28 13 -23 16 63
2 73 6 92 18 92 12 0 14 -60 14 -455 -1 -388 -3 -455 -15 -455 -11 0 -15 22
-17 108 l-3 107 -24 -52 c-64 -142 -225 -206 -392 -157 -70 21 -136 86 -164
164 -18 49 -20 80 -20 295 0 210 2 247 19 295 27 77 58 120 110 153 72 45 216
52 306 15z m1686 5 c27 -9 62 -26 77 -37 38 -28 77 -112 84 -180 5 -50 4 -56
-13 -56 -16 0 -19 8 -20 46 -4 99 -61 181 -141 203 -68 19 -201 13 -263 -12
-67 -27 -116 -86 -126 -152 -19 -131 46 -189 306 -270 130 -41 184 -69 228
-119 91 -104 52 -263 -82 -331 -57 -29 -65 -30 -190 -30 -115 0 -136 3 -171
22 -91 48 -133 121 -142 240 -6 70 -5 73 16 73 21 0 22 -3 16 -44 -9 -56 16
-143 51 -186 103 -122 400 -111 488 19 63 94 34 207 -70 271 -17 11 -100 44
-185 73 -161 56 -188 68 -229 99 -97 75 -93 235 8 318 77 64 251 90 358 53z
m1488 -3 c23 -7 58 -31 86 -59 63 -66 85 -138 85 -286 l0 -110 -299 -3 -299
-2 6 -98 c13 -214 84 -321 236 -353 67 -14 166 7 218 47 47 36 89 106 103 176
9 39 18 58 28 58 11 0 13 -8 8 -40 -13 -85 -45 -147 -101 -198 -66 -60 -121
-77 -235 -70 -63 4 -86 10 -126 35 -60 36 -105 93 -135 170 -21 53 -23 74 -23
263 -1 191 1 210 23 274 35 102 109 177 200 203 52 14 165 11 225 -7z m-2707
-150 c25 -69 82 -228 128 -355 45 -126 91 -256 101 -288 l19 -57 93 267 c52
148 117 334 145 415 40 113 56 148 69 148 18 0 13 -17 -167 -525 -31 -88 -76
-216 -100 -285 -120 -346 -143 -405 -160 -408 -20 -4 -19 -2 25 123 59 168 70
202 70 220 0 10 -67 209 -150 441 -82 232 -150 425 -150 429 0 4 7 5 16 3 11
-2 31 -44 61 -128z"/>
<path d="M7158 11630 c-201 -36 -373 -146 -553 -355 -45 -51 -143 -202 -196
-301 -56 -104 -54 -102 -164 -106 l-70 -3 105 -13 c258 -33 424 -79 590 -162
140 -70 247 -157 353 -285 l25 -30 23 30 c64 86 190 193 309 262 47 28 211 96
280 116 99 30 285 65 353 66 9 1 17 5 17 11 0 22 -86 192 -158 313 -153 257
-325 392 -566 443 -86 18 -283 26 -348 14z"/>
<path d="M5800 10710 c-273 -40 -486 -206 -633 -492 -41 -82 -42 -84 -40 -178
3 -122 18 -217 48 -304 38 -110 34 -108 224 -107 188 2 168 -5 306 109 33 27
91 79 130 116 38 36 71 64 73 62 7 -7 -121 -208 -161 -253 -11 -13 -18 -25
-15 -28 3 -3 136 -4 296 -3 l291 3 -40 63 c-192 302 -236 598 -138 930 12 40
19 76 15 80 -11 10 -290 12 -356 2z"/>
<path d="M8357 10713 c-22 -3 -27 -8 -21 -21 4 -9 18 -57 32 -107 20 -73 26
-121 29 -255 5 -154 3 -172 -21 -270 -28 -111 -106 -286 -169 -377 l-36 -53
275 -1 c151 -1 283 -2 294 -2 29 -2 25 12 -17 68 -51 67 -134 207 -128 213 3
3 36 -24 73 -60 87 -86 154 -142 217 -184 l50 -33 162 -2 c160 -1 163 -1 182
22 47 59 91 256 91 411 0 60 -5 78 -41 151 -104 206 -224 333 -392 416 -145
71 -201 83 -392 86 -88 2 -173 1 -188 -2z"/>
<path d="M6236 10658 c-9 -82 -7 -305 5 -419 26 -260 99 -500 177 -581 26 -28
27 -28 158 -28 l132 0 54 53 c30 28 69 71 88 95 18 24 34 41 37 38 7 -7 -17
-88 -42 -138 l-24 -48 114 0 c63 0 118 1 123 3 4 1 7 16 6 32 -2 79 17 292 31
352 17 70 58 188 82 233 20 39 16 58 -24 106 -88 105 -217 174 -448 238 -101
27 -451 116 -460 116 -1 0 -5 -24 -9 -52z"/>
<path d="M8219 10706 c-2 -2 -114 -32 -249 -66 -271 -68 -342 -91 -444 -141
-71 -35 -210 -153 -221 -190 -4 -11 5 -44 24 -82 62 -133 101 -324 101 -502
l0 -95 120 0 120 0 -21 53 c-28 68 -50 139 -45 144 2 2 20 -18 39 -44 43 -58
141 -153 159 -154 7 0 67 0 133 1 142 1 139 0 195 115 88 179 133 424 132 720
-1 105 -3 201 -5 215 -3 22 -26 38 -38 26z"/>
<path d="M7219 10143 c-44 -101 -140 -495 -126 -510 6 -5 309 -4 314 1 3 3
-21 123 -48 236 -36 153 -94 320 -112 320 -4 0 -17 -21 -28 -47z"/>
<path d="M4919 10037 c-127 -97 -476 -320 -604 -386 -22 -11 -33 -20 -25 -21
105 -4 795 2 795 7 0 5 -14 44 -32 88 -30 76 -56 190 -69 298 -3 26 -9 47 -13
47 -5 0 -28 -15 -52 -33z"/>
<path d="M9516 10043 c-3 -16 -8 -50 -12 -78 -12 -95 -37 -187 -76 -274 -10
-24 -17 -48 -15 -55 3 -8 113 -10 403 -8 l398 2 -50 27 c-117 62 -351 212
-531 341 -55 39 -103 72 -106 72 -3 0 -8 -12 -11 -27z"/>
<path d="M2310 9443 c-58 -9 -150 -49 -220 -95 -124 -82 -213 -207 -250 -353
-19 -74 -20 -110 -20 -739 0 -734 1 -743 65 -872 66 -134 189 -243 343 -303
l67 -26 4900 0 4900 0 74 24 c148 49 290 170 353 301 68 142 68 133 68 865 0
558 -2 671 -15 730 -45 203 -186 362 -400 450 l-50 20 -3335 0 c-1834 0 -3357
-1 -3385 -2 -27 -1 -729 0 -1560 1 -830 2 -1521 2 -1535 -1z m1059 -266 c38
-19 77 -22 86 -7 18 29 25 0 25 -100 0 -60 -4 -110 -8 -110 -4 0 -16 24 -27
53 -47 134 -134 193 -228 153 -80 -33 -99 -153 -34 -214 13 -12 70 -47 128
-78 160 -85 208 -144 209 -251 0 -111 -61 -195 -167 -228 -48 -15 -68 -16
-123 -8 -36 5 -86 18 -113 29 -39 15 -51 16 -67 6 -11 -6 -22 -12 -25 -12 -3
0 -5 52 -5 116 0 124 12 146 35 66 19 -64 62 -129 103 -157 28 -19 49 -25 93
-25 49 0 60 4 97 35 33 29 42 44 48 81 8 56 -7 112 -41 153 -14 16 -65 50
-115 75 -109 57 -147 88 -171 141 -48 105 4 233 116 287 48 23 133 21 184 -5z
m389 -165 l2 -183 33 25 c66 51 190 53 251 5 37 -29 46 -77 46 -242 0 -82 4
-157 10 -167 5 -10 21 -21 35 -24 14 -4 25 -11 25 -16 0 -6 -48 -10 -120 -10
-73 0 -120 4 -120 10 0 6 8 10 18 10 39 0 50 29 58 156 9 163 0 229 -36 266
-34 33 -95 38 -137 11 -49 -32 -63 -88 -63 -253 0 -142 1 -150 22 -164 12 -9
31 -16 41 -16 10 0 15 -4 12 -10 -4 -6 -57 -10 -126 -10 -73 0 -119 4 -119 10
0 6 6 10 13 10 8 0 25 9 38 21 l24 21 0 322 c0 291 -2 324 -18 349 -9 15 -26
27 -37 27 -40 0 -19 19 28 25 26 4 52 8 57 10 6 2 21 3 35 2 l25 -2 3 -183z
m1512 3 c0 -102 2 -185 5 -185 3 0 16 9 28 20 12 12 46 28 75 36 81 24 157 4
201 -52 19 -25 21 -39 21 -196 0 -166 0 -169 25 -193 13 -14 31 -25 40 -25 9
0 13 -4 10 -10 -4 -6 -55 -10 -120 -10 -65 0 -116 4 -120 10 -3 6 3 10 14 10
11 0 29 12 41 27 20 26 21 36 18 201 l-3 174 -30 24 c-44 35 -112 34 -148 -4
-44 -46 -57 -100 -57 -244 0 -124 1 -130 25 -153 13 -14 31 -25 40 -25 8 0 15
-5 15 -10 0 -6 -47 -10 -125 -9 -69 0 -125 4 -125 8 0 3 13 12 30 18 17 6 34
23 40 38 6 15 10 149 10 327 0 255 -2 305 -16 334 -10 21 -24 34 -35 34 -11 0
-19 4 -19 9 0 10 81 28 133 30 l27 1 0 -185z m1110 165 c41 -41 39 -121 -6
-189 -35 -54 -134 -114 -134 -82 0 5 9 13 20 16 29 9 70 53 86 91 18 44 18 44
-11 44 -29 0 -75 40 -75 65 0 20 19 57 34 67 21 14 66 8 86 -12z m3238 8 c7
-7 12 -24 12 -38 0 -14 -5 -31 -12 -38 -7 -7 -24 -12 -38 -12 -32 0 -50 17
-50 46 0 44 58 72 88 42z m-1890 -34 c69 -34 92 -73 92 -153 0 -72 -25 -120
-77 -148 -18 -10 -33 -20 -33 -24 0 -4 21 -12 46 -19 57 -16 104 -63 127 -127
23 -64 22 -110 -5 -163 -33 -63 -82 -98 -154 -110 -80 -13 -524 -13 -524 0 0
6 7 10 15 10 32 0 73 30 84 61 16 46 15 589 -1 624 -12 27 -54 55 -83 55 -8 0
-15 5 -15 10 0 6 86 10 238 10 236 0 239 0 290 -26z m1573 -156 c1 -18 0 -50
-1 -70 l-2 -38 71 0 c79 0 110 -19 34 -21 -26 -1 -59 -2 -73 -3 l-25 -1 -3
-155 c-4 -188 2 -235 33 -266 30 -30 78 -31 105 -4 29 29 48 25 20 -5 -45 -48
-154 -59 -212 -21 -25 16 -26 21 -33 150 -4 74 -5 171 -3 215 l5 82 -28 6 -28
5 32 22 c17 12 45 47 61 79 16 31 33 57 38 57 4 0 8 -15 9 -32z m919 -402 c0
-195 4 -324 11 -344 6 -18 22 -35 40 -42 16 -7 29 -16 29 -21 0 -12 -237 -11
-245 1 -3 5 5 12 19 16 45 11 55 32 56 124 2 135 4 127 -23 102 -92 -86 -273
-33 -328 96 -21 49 -26 163 -8 209 17 46 60 102 94 123 48 30 133 43 186 29
87 -22 103 -22 123 0 45 49 46 41 46 -293z m-5710 271 c25 -12 51 -33 57 -47
9 -17 13 -80 13 -192 0 -138 3 -169 16 -182 17 -18 50 -21 59 -6 9 14 25 12
25 -3 0 -18 -53 -47 -85 -47 -32 0 -81 24 -94 47 -9 16 -11 16 -28 1 -69 -60
-178 -64 -235 -7 -9 9 -20 32 -23 50 -13 70 33 127 118 148 129 32 165 69 152
155 -16 105 -114 130 -157 40 -25 -51 -42 -60 -74 -39 -73 48 36 121 161 108
28 -2 70 -14 95 -26z m432 12 c9 -5 23 -6 31 -3 10 3 16 -5 21 -27 9 -47 7
-89 -4 -89 -5 0 -10 8 -10 18 0 10 -15 36 -34 58 -29 33 -39 39 -75 39 -33 0
-47 -6 -62 -25 -41 -55 -18 -95 89 -150 94 -48 104 -56 125 -97 66 -127 -71
-256 -209 -198 -20 8 -47 12 -60 9 -19 -5 -24 -2 -25 12 0 11 -1 41 -2 67 -4
70 8 77 33 20 12 -28 32 -61 44 -72 32 -30 85 -37 124 -17 29 15 32 21 32 67
0 56 -22 84 -95 121 -118 59 -160 131 -121 206 37 71 125 98 198 61z m1061 -1
c21 -6 49 -22 62 -34 25 -23 25 -25 25 -191 0 -181 8 -215 49 -221 12 -2 31 4
42 14 16 14 19 15 19 2 0 -30 -40 -53 -90 -53 -39 0 -54 5 -77 27 l-29 27 -44
-29 c-67 -45 -147 -39 -207 14 -18 15 -23 30 -23 70 0 70 30 99 136 132 114
34 134 52 134 117 0 127 -106 173 -159 69 -22 -44 -44 -57 -70 -42 -26 14 -32
47 -13 70 36 44 146 56 245 28z m712 7 c25 -9 43 -11 51 -4 8 7 13 -1 18 -28
9 -56 7 -93 -4 -93 -5 0 -10 9 -10 21 0 27 -58 86 -93 95 -32 7 -73 -16 -89
-50 -19 -44 8 -76 107 -127 71 -37 95 -55 112 -85 78 -134 -56 -268 -207 -208
-35 14 -48 14 -76 2 -4 -2 -7 32 -8 75 0 42 2 77 6 77 4 0 17 -23 29 -50 28
-65 69 -100 118 -100 69 0 108 63 78 126 -12 24 -38 45 -97 79 -44 26 -89 58
-99 71 -56 71 -21 178 65 204 40 12 53 11 99 -5z m1634 -12 c143 -57 204 -221
131 -348 -107 -187 -380 -175 -476 20 -21 45 -26 65 -22 108 15 180 197 289
367 220z m1281 -194 c0 -210 0 -210 25 -234 13 -14 31 -25 40 -25 9 0 13 -4
10 -10 -7 -12 -245 -14 -245 -2 0 4 13 13 30 19 17 6 34 23 40 38 13 34 13
316 0 350 -6 15 -22 30 -40 37 -17 6 -28 13 -25 17 8 7 147 28 158 23 4 -2 7
-98 7 -213z m1600 210 c81 -17 140 -82 140 -154 l0 -25 -165 0 -165 0 0 -45
c0 -66 34 -148 80 -188 73 -67 181 -59 230 17 30 47 42 23 13 -26 -37 -64
-160 -95 -260 -67 -61 18 -134 87 -151 145 -48 161 30 308 183 345 43 10 39
10 95 -2z m-2499 -214 c3 -115 7 -211 7 -213 9 -14 74 -42 98 -42 37 0 94 36
111 70 9 17 13 76 13 181 0 168 -3 177 -57 193 -47 15 -20 26 62 26 l85 0 0
-204 c0 -191 1 -205 21 -230 11 -14 27 -26 35 -26 28 0 14 -18 -18 -23 -121
-21 -116 -21 -123 11 l-6 30 -49 -25 c-66 -34 -128 -40 -185 -19 -78 30 -85
49 -86 233 -1 87 -4 169 -8 183 -4 15 -20 31 -38 40 -18 8 -33 19 -33 23 0 4
37 7 83 5 l82 -3 6 -210z m1759 4 c5 -218 6 -220 57 -247 50 -27 132 -2 157
47 13 23 16 64 16 187 0 148 -1 159 -22 181 -12 13 -27 23 -35 23 -7 0 -13 5
-13 10 0 6 33 10 80 10 l80 0 0 -182 c0 -212 8 -255 51 -271 16 -6 29 -14 29
-18 0 -3 -24 -10 -52 -13 -29 -4 -63 -10 -75 -13 -16 -3 -24 0 -28 11 -3 9 -7
22 -9 30 -4 11 -17 7 -62 -15 -92 -47 -182 -35 -238 31 -26 31 -26 33 -26 201
0 167 0 170 -25 194 -13 14 -31 25 -40 25 -8 0 -15 5 -15 10 0 7 30 10 83 8
l82 -3 5 -206z m-4852 -909 c5 -46 -13 -81 -53 -109 -41 -27 -58 -23 -22 6 22
17 47 53 47 67 0 3 -8 6 -18 6 -43 0 -56 49 -20 74 30 22 62 1 66 -44z m2950
0 c5 -44 -14 -86 -50 -111 -34 -25 -53 -16 -22 10 19 16 44 52 44 65 0 3 -9 6
-20 6 -12 0 -25 11 -32 26 -11 23 -10 29 11 45 21 17 26 18 45 6 13 -9 22 -27
24 -47z m-4228 -62 c0 -62 4 -108 8 -102 4 6 24 17 44 24 74 27 159 -27 173
-110 15 -87 -18 -153 -88 -179 -47 -18 -66 -13 -33 8 43 28 55 58 56 129 0 91
-33 141 -93 142 -42 0 -67 -48 -67 -133 0 -69 20 -137 40 -137 6 0 9 -4 5 -10
-4 -6 -15 -6 -32 1 -20 7 -30 6 -43 -6 -9 -8 -20 -12 -23 -8 -4 3 -7 107 -7
230 l0 223 -26 13 -27 12 24 6 c13 4 39 7 57 8 l32 1 0 -112z m-342 75 c17
-45 90 -220 134 -321 29 -66 48 -97 67 -107 14 -8 22 -15 16 -15 -57 -4 -195
-4 -195 0 0 3 10 10 22 15 31 14 33 35 7 105 l-22 60 -78 0 -78 0 -20 -55
c-27 -71 -26 -79 4 -103 l25 -20 -57 -4 c-72 -5 -94 3 -59 22 14 7 32 27 40
44 16 35 140 349 150 384 10 30 32 28 44 -5z m2260 16 c-14 -6 -29 -17 -32
-25 -6 -15 112 -314 123 -314 4 0 27 61 50 135 39 120 42 138 31 165 -7 16
-24 33 -39 39 -19 7 1 10 84 10 101 0 108 -1 84 -14 -15 -8 -29 -22 -33 -31
-5 -13 76 -299 88 -311 4 -4 102 233 111 269 9 36 -1 63 -28 76 -18 9 -6 11
58 11 69 0 77 -1 57 -12 -30 -17 -49 -46 -79 -120 -14 -34 -33 -80 -42 -102
-10 -22 -35 -84 -57 -137 -21 -54 -44 -98 -50 -98 -6 0 -37 79 -69 175 -32 97
-60 174 -62 172 -2 -2 -29 -80 -61 -173 -35 -100 -64 -169 -71 -169 -7 0 -35
54 -62 120 -47 114 -80 193 -116 278 -11 25 -28 43 -47 52 -28 12 -22 13 79
13 83 0 103 -2 83 -9z m2950 -1 c-20 -7 -28 -17 -28 -34 0 -26 109 -304 119
-304 6 0 77 204 87 250 7 33 -11 80 -30 80 -8 0 -18 5 -21 10 -4 6 32 10 102
9 59 -1 98 -4 85 -6 -12 -2 -29 -15 -38 -28 -16 -24 -16 -23 68 -293 12 -40
17 -36 50 48 91 227 93 236 51 262 -28 17 -27 17 52 17 76 0 79 -1 53 -14 -31
-17 -56 -68 -149 -297 -35 -87 -68 -158 -74 -158 -7 0 -38 79 -70 175 -32 97
-59 174 -62 172 -2 -2 -29 -80 -61 -172 -32 -93 -62 -170 -68 -172 -13 -4 -19
9 -96 197 -94 232 -100 242 -133 256 -27 12 -19 13 80 13 86 0 104 -3 83 -11z
m-4400 -184 c12 -8 22 -24 23 -37 1 -12 2 -60 3 -107 4 -114 3 -110 31 -110
33 0 32 -18 -2 -26 -17 -5 -38 -1 -60 11 -26 14 -36 16 -45 7 -7 -7 -17 -12
-22 -12 -6 1 0 10 13 21 20 16 26 32 29 80 3 36 0 59 -6 59 -7 0 -7 11 0 34 9
28 8 40 -6 60 -21 32 -71 36 -81 7 -14 -45 -69 -51 -63 -7 6 43 129 57 186 20z
m554 16 c59 -17 68 -38 68 -163 l0 -109 30 4 c19 3 30 0 30 -8 0 -27 -64 -32
-98 -8 -21 14 -26 14 -56 0 -59 -28 -109 -16 -126 30 -15 39 4 72 56 94 68 30
81 25 40 -14 -37 -34 -46 -72 -24 -94 19 -19 55 -14 72 10 19 27 22 118 4 118
-9 0 -9 3 0 12 17 17 15 93 -2 107 -24 20 -69 9 -83 -19 -16 -32 -47 -33 -51
-2 -3 17 4 26 30 37 40 17 61 18 110 5z m486 -5 c2 -2 2 -18 0 -37 l-3 -33
-15 30 c-12 24 -23 31 -52 33 -29 3 -38 -1 -43 -17 -11 -36 4 -58 58 -84 66
-31 82 -50 82 -99 0 -32 -7 -45 -28 -64 -30 -26 -58 -23 -32 2 16 16 20 51 7
70 -4 6 -31 26 -60 44 -29 17 -57 40 -62 50 -17 32 -11 70 16 97 23 23 30 25
77 19 28 -4 53 -9 55 -11z m1203 5 c111 -31 152 -176 72 -252 -32 -30 -80 -51
-88 -39 -3 5 2 12 10 15 22 8 55 84 55 128 1 138 -135 193 -180 72 -25 -64 -3
-166 41 -197 32 -23 18 -31 -23 -14 -103 43 -126 164 -47 245 45 46 97 59 160
42z m249 -16 c0 -16 16 -19 25 -4 3 6 12 10 18 10 8 -1 7 -5 -3 -13 -31 -26
-40 -58 -40 -142 0 -71 3 -88 19 -104 25 -25 12 -30 -59 -21 -30 4 -50 8 -43
9 20 2 29 60 26 156 -2 66 -7 93 -18 101 -23 17 -18 22 23 26 44 4 52 1 52
-18z m173 -3 c19 -18 21 -19 46 -3 l26 17 -23 -32 c-19 -27 -22 -44 -22 -126
0 -88 2 -97 22 -111 22 -16 22 -16 -12 -17 -19 -1 -48 -2 -65 -3 -42 -3 -50 4
-26 21 19 13 21 24 21 119 0 91 -3 107 -20 124 -11 11 -30 20 -42 20 -19 0
-20 2 -8 11 21 14 80 3 103 -20z m178 14 c41 -22 49 -50 49 -165 0 -92 1 -99
21 -105 45 -14 -27 -24 -116 -16 -5 1 1 8 13 17 20 14 22 23 22 120 0 91 -3
107 -20 124 -11 11 -32 20 -47 20 -22 0 -25 2 -13 10 22 14 57 12 91 -5z m325
0 c35 -14 72 -74 59 -95 -4 -6 -51 -10 -106 -10 -63 0 -99 -4 -99 -11 0 -5 5
-30 11 -55 23 -88 120 -126 174 -68 32 34 33 14 2 -22 -19 -22 -34 -28 -78
-31 -90 -7 -155 41 -166 124 -16 122 94 214 203 168z m379 -9 c24 -16 25 -21
25 -126 0 -99 2 -111 22 -130 l22 -20 -50 -1 c-27 0 -57 -2 -66 -4 -10 -2 -20
1 -24 6 -3 5 2 9 10 9 28 0 38 39 34 135 -3 101 -19 135 -64 135 -63 0 -84
-38 -84 -150 0 -87 10 -120 38 -121 14 0 13 -2 -3 -7 -17 -6 -63 -8 -112 -3
-8 1 -6 8 7 21 17 17 20 33 20 120 0 87 -3 103 -20 120 -11 11 -20 22 -20 25
0 3 20 5 44 5 32 0 46 -5 50 -17 4 -10 10 -13 14 -7 25 35 111 40 157 10z
m408 18 c35 -6 37 -9 37 -43 -1 -32 -2 -34 -12 -16 -20 35 -37 46 -64 43 -34
-4 -53 -31 -38 -55 6 -10 34 -31 63 -46 65 -36 85 -65 77 -112 -7 -35 -46 -75
-74 -75 -12 0 -11 5 6 20 43 40 25 83 -48 120 -83 42 -95 120 -25 158 24 13
28 14 78 6z m1256 -22 c25 -18 45 -67 35 -84 -3 -4 -48 -8 -101 -8 l-96 0 5
-50 c7 -73 44 -110 109 -110 39 0 51 5 68 26 12 15 21 22 21 16 0 -6 -10 -23
-23 -37 -27 -32 -96 -44 -150 -25 -98 32 -128 163 -55 245 49 56 132 68 187
27z m286 2 c23 -15 25 -22 26 -103 1 -47 2 -93 3 -101 2 -8 3 -22 4 -31 2 -20
80 -33 99 -17 9 7 13 44 13 124 0 104 -2 113 -20 119 -29 9 -16 22 26 27 28 3
38 0 41 -12 4 -16 7 -16 41 1 20 11 44 19 53 19 19 0 49 -25 49 -41 0 -18 -31
-21 -49 -5 -24 22 -58 20 -71 -3 -5 -11 -10 -67 -10 -124 0 -88 3 -106 16
-111 9 -4 14 -9 10 -13 -9 -10 -108 -11 -128 -1 -10 5 -19 4 -23 -2 -10 -16
-58 -12 -84 7 -19 12 -28 14 -42 5 -10 -7 -35 -14 -56 -18 -30 -4 -44 -1 -66
16 -56 44 -24 108 66 131 60 15 81 42 71 93 -5 27 -12 38 -30 42 -32 8 -55 -2
-61 -25 -10 -39 -67 -36 -61 3 6 44 126 57 183 20z m-5299 3 c-18 -13 -18 -16
-1 -68 10 -29 27 -73 38 -98 l19 -44 23 55 c46 113 49 127 29 149 -17 19 -16
19 32 19 47 -1 48 -1 29 -18 -11 -9 -31 -44 -44 -77 -123 -307 -135 -328 -186
-323 -22 2 -30 8 -30 23 0 17 6 20 37 17 31 -2 40 2 54 24 24 36 21 78 -9 144
-14 30 -37 84 -51 119 -14 35 -34 70 -43 77 -16 12 -9 13 51 14 61 0 67 -2 52
-13z m-270 -140 c-68 -41 -86 -101 -38 -122 12 -5 22 -14 22 -19 0 -12 -77 -1
-95 14 -18 15 -20 70 -2 93 13 18 80 46 112 46 20 0 20 0 1 -12z m970 -72 c3
-14 17 -34 31 -45 l24 -19 -40 1 -41 0 0 44 c0 48 16 59 26 19z m2990 -51 l25
-20 -42 5 c-39 5 -42 9 -44 36 -3 49 6 61 22 29 8 -16 26 -38 39 -50z"/>
<path d="M7440 8990 l0 -169 68 5 c87 7 131 29 159 79 52 92 6 219 -86 245
-20 5 -60 10 -88 10 l-53 0 0 -170z"/>
<path d="M7440 8655 c0 -168 9 -197 67 -222 46 -19 124 -9 174 22 89 57 103
204 28 290 -38 42 -80 55 -186 55 l-83 0 0 -145z"/>
<path d="M9952 8863 c-22 -12 -41 -34 -60 -72 -23 -49 -27 -68 -27 -146 1 -80
4 -96 30 -143 30 -56 76 -92 117 -92 38 0 91 41 105 80 15 43 17 252 3 301
-20 72 -100 107 -168 72z"/>
<path d="M4444 8647 c-18 -12 -46 -30 -63 -39 -45 -25 -73 -75 -65 -118 7 -42
27 -66 59 -73 29 -5 79 23 95 53 14 26 26 200 14 199 -5 0 -23 -10 -40 -22z"/>
<path d="M5940 8636 c-79 -44 -102 -70 -108 -122 -7 -62 16 -94 66 -94 72 0
106 62 100 181 l-3 66 -55 -31z"/>
<path d="M8190 8863 c-56 -29 -92 -99 -98 -187 -6 -96 2 -133 39 -190 91 -136
236 -83 268 99 32 182 -87 341 -209 278z"/>
<path d="M11123 8864 c-30 -15 -73 -81 -73 -112 0 -9 34 -12 119 -12 l119 0
-7 33 c-10 44 -29 72 -62 91 -34 20 -55 20 -96 0z"/>
<path d="M3941 7643 c-13 -32 -26 -65 -31 -74 -5 -9 -6 -20 -3 -23 10 -9 123
-7 123 2 0 13 -51 136 -59 145 -5 5 -18 -18 -30 -50z"/>
<path d="M7880 7593 c-11 -14 -19 -31 -17 -37 2 -6 34 -12 70 -14 59 -3 67 -1
67 15 0 62 -80 86 -120 36z"/>
<path d="M9907 7603 c-8 -10 -17 -27 -19 -38 -3 -18 3 -20 65 -23 59 -3 67 -1
67 15 0 10 -7 29 -16 41 -19 27 -74 30 -97 5z"/>
<path d="M10247 7469 c-44 -23 -61 -57 -47 -94 10 -25 41 -33 68 -17 23 15 45
133 25 132 -5 -1 -25 -10 -46 -21z"/>
<path d="M5640 6871 c0 -5 25 -25 55 -43 53 -31 198 -130 239 -162 27 -21 33
-14 41 50 4 31 13 74 21 96 8 22 14 46 14 52 0 9 -52 13 -185 15 -120 2 -185
-1 -185 -8z"/>
<path d="M6098 6873 c-11 -3 -18 -14 -18 -28 0 -13 -4 -26 -9 -29 -5 -4 -12
-48 -16 -99 -7 -91 -6 -94 26 -163 45 -94 145 -194 231 -233 81 -37 191 -55
274 -46 35 4 64 10 64 13 0 4 -7 30 -15 57 -43 139 -25 311 44 446 22 42 37
79 34 83 -10 10 -283 7 -283 -3 0 -6 14 -30 30 -54 38 -56 39 -82 2 -42 -15
17 -47 47 -72 68 l-44 37 -115 -1 c-64 -1 -124 -3 -133 -6z"/>
<path d="M6778 6858 c-52 -81 -82 -233 -82 -420 -1 -80 1 -149 4 -152 7 -6
218 46 325 80 123 39 235 122 221 163 -2 9 -17 48 -31 86 -19 49 -29 99 -34
165 l-6 95 -60 0 c-48 0 -59 -3 -56 -15 2 -8 6 -26 8 -40 4 -24 4 -25 -12 -5
-54 68 -47 65 -159 65 -97 0 -105 -2 -118 -22z"/>
<path d="M7203 6864 c-10 -27 51 -252 76 -277 6 -6 21 29 39 84 33 102 53 197
43 203 -3 2 -39 4 -79 4 -52 0 -75 -4 -79 -14z"/>
<path d="M7390 6877 c-1 -1 -3 -36 -6 -77 -6 -87 -26 -176 -55 -239 -19 -42
-20 -44 -2 -65 68 -80 143 -116 355 -171 94 -24 175 -42 180 -39 14 9 9 246
-7 340 -19 111 -52 211 -76 235 -16 16 -34 19 -118 19 l-99 0 -32 -36 c-35
-40 -46 -40 -31 -1 6 15 7 28 3 30 -7 5 -112 8 -112 4z"/>
<path d="M7850 6867 c0 -7 14 -40 32 -72 60 -112 84 -273 57 -395 -5 -25 -12
-61 -15 -81 l-6 -36 66 -7 c73 -7 170 6 242 33 97 37 184 119 252 238 32 57
33 60 29 153 -3 52 -11 113 -19 135 l-15 40 -123 3 c-138 3 -132 5 -224 -79
-48 -44 -57 -49 -51 -29 4 14 18 39 31 56 13 17 24 36 24 42 0 9 -41 12 -140
12 -109 0 -140 -3 -140 -13z"/>
<path d="M8555 6870 c-3 -5 1 -28 9 -52 8 -24 17 -61 21 -83 14 -93 -1 -95
171 21 86 57 160 104 165 104 5 0 9 5 9 10 0 13 -367 13 -375 0z"/>
<path d="M7229 6414 c-99 -102 -257 -176 -431 -204 -43 -7 -75 -17 -72 -21 3
-5 13 -9 22 -9 11 0 34 -29 61 -78 159 -276 335 -385 576 -354 146 19 256 87
342 213 42 61 124 220 118 230 -3 4 -29 10 -58 14 -190 26 -375 115 -469 225
l-34 39 -55 -55z"/>
<path d="M5380 3561 c-88 -19 -144 -65 -183 -151 -19 -40 -21 -70 -25 -277 -4
-218 -3 -236 18 -298 27 -82 60 -121 125 -151 37 -18 68 -24 120 -24 137 0
208 41 265 155 l35 69 3 196 c4 215 -4 277 -46 350 -32 57 -65 88 -118 112
-48 21 -143 30 -194 19z"/>
<path d="M6231 3560 c-109 -23 -179 -102 -202 -229 -15 -88 -7 -452 11 -501
24 -64 59 -109 107 -136 39 -23 61 -29 133 -32 73 -4 94 -1 138 18 28 12 68
40 88 62 76 85 99 187 91 412 -6 169 -19 227 -70 302 -55 83 -181 127 -296
104z"/>
<path d="M9355 3537 c-59 -28 -109 -82 -136 -145 -21 -49 -46 -219 -36 -245 6
-15 33 -17 288 -17 l282 0 -5 114 c-4 106 -7 119 -39 182 -27 56 -43 75 -82
98 -42 26 -61 30 -135 33 -76 4 -94 1 -137 -20z"/>
</g>
</svg>
